<svg data-v-0aeb5d22="" fill="none" xmlns="http://www.w3.org/2000/svg"><clipPath data-v-0aeb5d22="" id="viewport-mask1"><path data-v-0aeb5d22="" fill-rule="evenodd" clip-rule="evenodd" d="M39 0C17.4609 0 0 17.4609 0 39V773C0 794.539 17.4609 812 39 812H336C357.539 812 375 794.539 375 773V39C375 17.4609 357.539 0 336 0H297.841C294.343 0 291.507 2.83155 291.5 6.32735L291.5 6.34141L291.5 7.90001C291.5 20.0503 281.65 29.9 269.5 29.9H106C93.8493 29.9 83.9996 20.0503 83.9996 7.9V6.24057C83.9457 2.78481 81.1276 0 77.659 0H39Z"/></clipPath></svg>