<svg data-v-0aeb5d22="" fill="none" xmlns="http://www.w3.org/2000/svg"><clipPath data-v-0aeb5d22="" id="viewport-mask1"><path data-v-0aeb5d22="" fill-rule="evenodd" clip-rule="evenodd" d="M39.5 0C17.6848 0 0 17.6848 0 39.5V772.5C0 794.315 17.6848 812 39.5 812H335.5C357.315 812 375 794.315 375 772.5V39.5C375 17.6848 357.315 0 335.5 0H297.153C293.343 0 290.253 3.08924 290.253 6.9V0L290.253 4C290.253 17.8071 279.061 29 265.253 29H108.585C94.7778 29 83.5849 17.8071 83.5849 4V5.27273H83.57C83.3572 2.3252 80.8985 0 77.8968 0H39.5Z"/></clipPath></svg>