<svg data-v-0aeb5d22="" fill="none" xmlns="http://www.w3.org/2000/svg"><clipPath data-v-0aeb5d22="" id="viewport-mask1"><path data-v-0aeb5d22="" fill-rule="evenodd" clip-rule="evenodd" d="M47 0C21.0426 0 0 21.0426 0 47V797C0 822.957 21.0426 844 47 844H343C368.957 844 390 822.957 390 797V47C390 21.0426 368.957 0 343 0H300V7.79471C300 20.6106 289.611 31 276.795 31H112.196C99.9376 31 89.9999 21.0623 89.9999 8.80364V4.40874C89.2819 1.86701 86.9453 0.00442505 84.1738 0.00442505H89.9999V0H47ZM300.173 0.00442505H306.226C302.883 0.00442505 300.173 2.7147 300.173 6.05798V0.00442505Z"/></clipPath></svg>