<svg data-v-0aeb5d22="" fill="none" xmlns="http://www.w3.org/2000/svg"><clipPath data-v-0aeb5d22="" id="viewport-mask1"><path data-v-0aeb5d22="" fill-rule="evenodd" clip-rule="evenodd" d="M61.9942 0H109.789C112.279 0 114.298 2.01925 114.298 4.51035V12.7121C114.298 23.6103 124.129 33.4449 135.023 33.4449H255.54C264 33.4449 275.266 24.6103 275.266 13.7121V4.51035C275.266 2.01925 277.285 0 279.775 0H328.006C348.013 0 363.868 2.34765 375 13C386.799 24.2908 390 36.3647 390 62.0174V681.122C390 685.81 390 686.962 390 689.81V782.31C390 807.963 386.864 819.742 375.065 831.033C363.933 841.685 348.577 844 328.569 844H62.5578C40.5 844 26.1319 841.652 15 831C3.20107 819.709 0.000287411 807.463 0.000287411 781.81V165.31C0.000690563 162.31 0 157.328 0 154.48V62.0174C0 36.3647 3.20107 24.2908 15 13C26.1319 2.34765 41.987 0 61.9942 0Z"/></clipPath></svg>