<svg data-v-0aeb5d22="" fill="none" xmlns="http://www.w3.org/2000/svg"><clipPath data-v-0aeb5d22="" id="viewport-mask1"><path data-v-0aeb5d22="" fill-rule="evenodd" clip-rule="evenodd" d="M59.6098 0H106.259C108.653 0 110.594 1.94269 110.594 4.33935V10.3059C110.594 20.7909 119.086 29.2906 129.561 29.2906H246.981C257.456 29.2906 265.948 20.7909 265.948 10.3059V4.33935C265.948 1.94269 267.889 0 270.283 0H315.39C334.628 0 349.394 2.22715 360.098 12.4756C371.443 23.3383 375 34.986 375 59.666V655.298C375 659.808 375 660.916 375 663.656V752.649C375 777.329 371.985 788.662 360.639 799.524C349.936 809.773 335.17 812 315.932 812H60.1517C40.914 812 26.1481 809.773 15.4444 799.524C4.09924 788.662 0.000276357 776.848 0.000276357 752.168V159.042C0.000664003 156.156 0 151.363 0 148.623V59.666C0 34.986 3.55733 23.3383 14.9025 12.4756C25.6062 2.22715 40.3721 0 59.6098 0Z"/></clipPath></svg>