<svg data-v-0aeb5d22="" fill="none" xmlns="http://www.w3.org/2000/svg"><clipPath data-v-0aeb5d22="" id="viewport-mask1"><path data-v-0aeb5d22="" fill-rule="evenodd" clip-rule="evenodd" d="M0.012382 48.8761C0.00414172 49.2498 0 49.6244 0 50V730C0 730.471 0.0065182 730.941 0.0194694 731.409C0.00408733 732.482 0.0129916 733.577 0.0476516 734.688C0.201806 739.633 0.843653 744.212 1.81724 748.003C4.78473 761.53 14.6847 772.46 27.6043 776.881C31.9306 778.566 38.1065 779.726 44.9896 779.94C46.0854 779.974 47.1648 779.983 48.2231 779.969C48.8128 779.99 49.4052 780 50 780H310C310.586 780 311.169 779.99 311.749 779.97C312.784 779.983 313.84 779.974 314.91 779.94C321.793 779.726 327.969 778.566 332.296 776.881C345.215 772.46 355.115 761.53 358.083 748.003C359.056 744.212 359.698 739.633 359.852 734.688C359.865 734.288 359.874 733.891 359.88 733.495C359.959 732.34 360 731.175 360 730V50C360 48.8273 359.96 47.664 359.88 46.5115C359.874 46.1059 359.865 45.6977 359.852 45.2873C359.698 40.3431 359.056 35.7639 358.083 31.9729C355.115 18.4459 345.215 7.51537 332.296 3.09416C327.969 1.4099 321.793 0.250069 314.91 0.0354614C313.655 -0.00368887 312.421 -0.00997896 311.215 0.0144741C310.811 0.0048429 310.406 0 310 0H295C291.686 0 289 2.68629 289 6V8C289 21.8071 277.807 33 264 33H96C82.1929 33 71 21.8071 71 8V6C71 2.68629 68.3137 0 65 0H50C49.5765 0 49.1543 0.00526451 48.7333 0.0157317C47.5086 -0.0101806 46.2541 -0.00434601 44.9774 0.0354614C38.0943 0.250069 31.9184 1.4099 27.5921 3.09416C14.6725 7.51537 4.77252 18.4459 1.80504 31.9729C0.831446 35.7639 0.189599 40.3431 0.0354446 45.2873C-0.00255409 46.506 -0.00959624 47.7044 0.012382 48.8761Z"/></clipPath></svg>