<svg data-v-0aeb5d22="" fill="none" xmlns="http://www.w3.org/2000/svg"><clipPath data-v-0aeb5d22="" id="viewport-mask1"><path data-v-0aeb5d22="" fill-rule="evenodd" clip-rule="evenodd" d="M41 0C18.3563 0 0 18.3563 0 41V855C0 877.644 18.3563 896 41 896H373C395.644 896 414 877.644 414 855V41C414 18.3563 395.644 0 373 0H327.34C323.529 0 320.44 3.08923 320.44 6.9V0L320.44 7C320.44 20.8071 309.247 32 295.44 32H117.278C103.471 32 92.2779 20.8071 92.2779 7V5.81818H92.2612C92.0249 2.56549 89.3112 0 85.9982 0H41Z"/></clipPath></svg>