<svg data-v-0aeb5d22="" fill="none" xmlns="http://www.w3.org/2000/svg"><clipPath data-v-0aeb5d22="" id="viewport-mask1"><path data-v-0aeb5d22="" fill-rule="evenodd" clip-rule="evenodd" d="M68.0347 0H120.266C122.998 0 125.214 2.21544 125.214 4.94856V11.7528C125.214 28.7099 138.906 37.4028 149.861 37.4028H276.757C291.713 37.4028 302.405 23.7099 302.405 10.7528V4.94856C302.405 2.21544 304.62 0 307.353 0H359.965C381.922 0 398.783 2.3127 411 14C423.949 26.3877 428 39.8978 428 68.0428V747.298C428 752.441 428 753.705 428 756.829V858.316C428 886.461 424.449 899.612 411.5 912C399.283 923.687 382.54 926 360.584 926H68.6532C46.6965 926 28.2165 923.187 16 911.5C3.05142 899.112 0.000315428 885.913 0.000315428 857.768V181.371C0.000757861 178.079 0 172.613 0 169.488V68.0428C0 39.8978 3.05142 26.8877 16 14.5C28.2165 2.8127 46.078 0 68.0347 0Z"/></clipPath></svg>