<svg data-v-0aeb5d22="" fill="none" xmlns="http://www.w3.org/2000/svg"><clipPath data-v-0aeb5d22="" id="viewport-mask1"><path data-v-0aeb5d22="" fill-rule="evenodd" clip-rule="evenodd" d="M4.36782 17.5291C0.98576 23.1849 0 30.2926 0 37.3954V766.605C0 773.61 0.243658 778.992 4.36782 786.003C10.7904 796.923 23.3579 804 36.7816 804H323.218C335.252 804 346.623 798.125 353.333 789.042C359.032 781.329 360 775.023 360 766.605V37.3953C360 28.1682 358.391 19.8663 352.184 12.8547C345.437 4.77901 334.457 0 323.218 0H36.7816C23.4539 0 10.8198 6.73938 4.36782 17.5291ZM41.0328 30.6173C46.4287 30.6173 50.8029 26.17 50.8029 20.6841C50.8029 15.1982 46.4287 10.751 41.0328 10.751C35.6369 10.751 31.2627 15.1982 31.2627 20.6841C31.2627 26.17 35.6369 30.6173 41.0328 30.6173Z"/></clipPath></svg>