<svg data-v-0aeb5d22="" fill="none" xmlns="http://www.w3.org/2000/svg"><clipPath data-v-0aeb5d22="" id="viewport-mask1"><path data-v-0aeb5d22="" fill-rule="evenodd" clip-rule="evenodd" d="M34.8164 0C15.5878 0 0 15.5878 0 34.8164V765.184C0 784.412 15.5878 800 34.8164 800H325.184C344.412 800 360 784.412 360 765.184V34.8164C360 15.5878 344.412 0 325.184 0H221.8C213.8 0 209.3 2.30215 204.3 5.5C201.437 7.33113 199.047 9.9233 196.805 12.3537C196.024 13.2004 195.261 14.0282 194.502 14.7966C191.385 18.65 185.965 21.2 179.8 21.2C173.414 21.2 167.826 18.4632 164.771 14.3756C164.667 14.2532 164.562 14.1277 164.454 13.9996C162.489 11.6624 159.771 8.42962 156.3 6C152.3 3.2 147.008 0 138.008 0H34.8164Z"/></clipPath></svg>