<?xml version="1.0" encoding="utf-8"?>
<!-- Generator: Adobe Illustrator 28.3.0, SVG Export Plug-In . SVG Version: 6.00 Build 0)  -->
<svg version="1.1" id="Layer_1" xmlns="http://www.w3.org/2000/svg" xmlns:xlink="http://www.w3.org/1999/xlink" x="0px" y="0px"
	 viewBox="0 0 500 500" style="enable-background:new 0 0 500 500;" xml:space="preserve">
<style type="text/css">
	.st0{fill:url(#SVGID_1_);}
	.st1{fill:url(#SVGID_00000075129685366338101930000017044637004018187188_);}
	.st2{fill:url(#SVGID_00000170241751519329901310000009469596001853110666_);}
	
		.st3{fill:none;stroke:url(#SVGID_00000109734050042585607060000012173990567165218432_);stroke-width:26.5625;stroke-linecap:round;stroke-linejoin:round;stroke-miterlimit:6.25;stroke-opacity:0.5;}
	
		.st4{fill:none;stroke:url(#SVGID_00000052079687688804289220000006635079685793855376_);stroke-width:26.5625;stroke-linecap:round;stroke-linejoin:round;stroke-miterlimit:6.25;stroke-opacity:0.5;}
	
		.st5{fill:none;stroke:url(#SVGID_00000036242982568967268690000014650997405968937859_);stroke-width:26.5625;stroke-linecap:round;stroke-linejoin:round;stroke-miterlimit:6.25;stroke-opacity:0.5;}
	.st6{fill:none;}
</style>
<g>
	
		<linearGradient id="SVGID_1_" gradientUnits="userSpaceOnUse" x1="-707.582" y1="786.8008" x2="-706.582" y2="786.8008" gradientTransform="matrix(500 0 0 -78.125 353791 61730.5312)">
		<stop  offset="0" style="stop-color:#000000"/>
		<stop  offset="1" style="stop-color:#000000"/>
	</linearGradient>
	<path class="st0" d="M0,253.9l31.2,15.6v31.2h46.9v-31.2h343.8v31.2h46.9v-31.2l31.2-15.6v-31.2H0V253.9z"/>
	
		<linearGradient id="SVGID_00000080912025216091566880000000996810494015373189_" gradientUnits="userSpaceOnUse" x1="-707.3795" y1="789.1788" x2="-706.3795" y2="789.1788" gradientTransform="matrix(437.5 0 0 -218.75 309509.75 172769.5938)">
		<stop  offset="0" style="stop-color:#000000"/>
		<stop  offset="1" style="stop-color:#000000"/>
	</linearGradient>
	<path style="fill:url(#SVGID_00000080912025216091566880000000996810494015373189_);" d="M468.8,246.1h-46.9
		c0-94.9-77-171.9-171.9-171.9S78.1,151.1,78.1,246.1H31.2c0-120.8,97.9-218.8,218.8-218.8S468.8,125.3,468.8,246.1z"/>
	
		<linearGradient id="SVGID_00000043459259865555317840000004167943406378070679_" gradientUnits="userSpaceOnUse" x1="-706.8701" y1="789.2077" x2="-705.8701" y2="789.2077" gradientTransform="matrix(332.8734 0 0 -223.6281 235381.2656 176637.4844)">
		<stop  offset="0" style="stop-color:#000000"/>
		<stop  offset="1" style="stop-color:#000000"/>
	</linearGradient>
	<path style="fill:url(#SVGID_00000043459259865555317840000004167943406378070679_);" d="M83,127.6l59,132.7h28.6L250,81.4
		l79.5,178.8l28.6-0.1l57.8-132.7L387.2,115l-43.6,100.1L264.3,36.6h-28.6l-79.5,178.8l-44.7-100.5L83,127.6z"/>
</g>
<linearGradient id="SVGID_00000146485451986441909060000016072539198254278565_" gradientUnits="userSpaceOnUse" x1="-707.582" y1="780.2244" x2="-706.582" y2="780.2244" gradientTransform="matrix(500 0 0 -28.125 353791 22293.0312)">
	<stop  offset="0" style="stop-color:#000000"/>
	<stop  offset="1" style="stop-color:#000000"/>
</linearGradient>
<path style="fill:none;stroke:url(#SVGID_00000146485451986441909060000016072539198254278565_);stroke-width:26.5625;stroke-linecap:round;stroke-linejoin:round;stroke-miterlimit:6.25;stroke-opacity:0.5;" d="
	M0,363.3l62.5-28.1l62.5,28.1l62.5-28.1l62.5,28.1l62.5-28.1l62.5,28.1l62.5-28.1l62.5,28.1"/>
<linearGradient id="SVGID_00000180344625092772449560000018002290000551362979_" gradientUnits="userSpaceOnUse" x1="-707.582" y1="780.2244" x2="-706.582" y2="780.2244" gradientTransform="matrix(500 0 0 -28.125 353791 22347.7188)">
	<stop  offset="0" style="stop-color:#000000"/>
	<stop  offset="1" style="stop-color:#000000"/>
</linearGradient>
<path style="fill:none;stroke:url(#SVGID_00000180344625092772449560000018002290000551362979_);stroke-width:26.5625;stroke-linecap:round;stroke-linejoin:round;stroke-miterlimit:6.25;stroke-opacity:0.5;" d="
	M0,418l62.5-28.1L125,418l62.5-28.1L250,418l62.5-28.1L375,418l62.5-28.1L500,418"/>
<linearGradient id="SVGID_00000109708832631012707000000011248792832353115289_" gradientUnits="userSpaceOnUse" x1="-707.582" y1="780.2244" x2="-706.582" y2="780.2244" gradientTransform="matrix(500 0 0 -28.125 353791 22402.4062)">
	<stop  offset="0" style="stop-color:#000000"/>
	<stop  offset="1" style="stop-color:#000000"/>
</linearGradient>
<path style="fill:none;stroke:url(#SVGID_00000109708832631012707000000011248792832353115289_);stroke-width:26.5625;stroke-linecap:round;stroke-linejoin:round;stroke-miterlimit:6.25;stroke-opacity:0.5;" d="
	M0,472.7l62.5-28.1l62.5,28.1l62.5-28.1l62.5,28.1l62.5-28.1l62.5,28.1l62.5-28.1l62.5,28.1"/>
<path class="st6" d="M152.3,170.1L190,255l60-135l60,135l37-84.9"/>
</svg>
